<?xml version="1.0" encoding="UTF-8"?>
<svg id="Ebene_2" data-name="Ebene 2" xmlns="http://www.w3.org/2000/svg" xmlns:xlink="http://www.w3.org/1999/xlink" viewBox="0 0 52.77 55.31">
  <defs>
    <style>
      .cls-1 {
        fill: url(#Unbenannter_Verlauf_46);
      }

      .cls-2 {
        fill: url(#Unbenannter_Verlauf_46-2);
      }
    </style>
    <linearGradient id="Unbenannter_Verlauf_46" data-name="Unbenannter Verlauf 46" x1="3.51" y1="15.79" x2="49.19" y2="42.17" gradientUnits="userSpaceOnUse">
      <stop offset="0" stop-color="#2e378d"/>
      <stop offset="1" stop-color="#e74f91"/>
    </linearGradient>
    <linearGradient id="Unbenannter_Verlauf_46-2" data-name="Unbenannter Verlauf 46" x1="18.17" y1="7.37" x2="33.97" y2="16.49" xlink:href="#Unbenannter_Verlauf_46"/>
  </defs>
  <g id="Ebene_1-2" data-name="Ebene 1">
    <path class="cls-1" d="M34.06,10.01c0,1.47.73,2.85,1.97,3.64,5.07,3.2,8.44,8.86,8.44,15.28,0,11.79-11.34,20.98-23.69,17.23-5.48-1.67-9.84-5.96-11.56-11.43-2.69-8.56.85-16.67,7.21-20.88,1.41-.93,2.29-2.48,2.29-4.18V3.68C5.59,7.68-3.23,21.65,1.12,36.72c2.45,8.49,9.19,15.15,17.7,17.53,17.77,4.98,33.95-8.32,33.95-25.33,0-11.88-7.89-21.95-18.71-25.24v6.32Z"/>
    <path class="cls-2" d="M22.23.33v20.76c0,2.56,1.86,4.63,4.15,4.63s4.16-2.07,4.16-4.63V.33c-1.41-.22-2.8-.33-4.16-.33s-2.79.11-4.14.33"/>
  </g>
</svg>